<?xml version="1.0" encoding="UTF-8"?>
<!-- Generator: visioncortex VTracer 0.6.4 -->
<svg version="1.1" xmlns="http://www.w3.org/2000/svg" width="1188" height="210">
<path d="M0 0 C392.04 0 784.08 0 1188 0 C1188 69.3 1188 138.6 1188 210 C795.96 210 403.92 210 0 210 C0 140.7 0 71.4 0 0 Z " fill="#000000" transform="translate(0,0)"/>
<path d="M0 0 C2.97 0.495 2.97 0.495 6 1 C5.67 1.99 5.34 2.98 5 4 C4.84890907 6.20959253 4.75126199 8.42300047 4.68359375 10.63671875 C4.64169922 11.93544922 4.59980469 13.23417969 4.55664062 14.57226562 C4.51683013 15.94400761 4.47711784 17.31575244 4.4375 18.6875 C4.39429165 20.07097645 4.35067661 21.45444027 4.30664062 22.83789062 C4.20041972 26.22515719 4.09837642 29.61249799 4 33 C4.66 33 5.32 33 6 33 C6.02471738 37.78718692 6.04286825 42.5743367 6.05493164 47.36157227 C6.05996065 48.99015958 6.06678465 50.61874237 6.07543945 52.24731445 C6.08756769 54.58806472 6.09324263 56.9287553 6.09765625 59.26953125 C6.10281754 59.99775589 6.10797882 60.72598053 6.11329651 61.47627258 C6.11364279 64.59602288 5.99455604 67.01633188 5 70 C4.85426942 71.47965926 4.75336732 72.96403843 4.68359375 74.44921875 C4.64169922 75.29677734 4.59980469 76.14433594 4.55664062 77.01757812 C4.51732422 77.89865234 4.47800781 78.77972656 4.4375 79.6875 C4.39431641 80.58017578 4.35113281 81.47285156 4.30664062 82.39257812 C4.20064647 84.59490108 4.09857949 86.79733473 4 89 C2.02 89.495 2.02 89.495 0 90 C0 60.3 0 30.6 0 0 Z " fill="#747474" transform="translate(40,58)"/>
</svg>
